# xmcd
#
# Track frame offsets: 
#        225
#        17105
#        29280
#        41308
#        56842
#        72243
#        84111
#        94829
#        107240
#        125504
#
# Disc length: 1943 seconds
#
# Revision: 1
# Processed by: cddbd v1.5.2PL0 Copyright (c) Steve Scherf et al.
# Submitted via: ExactAudioCopy v0.95b4
#
DISCID=7d07940a
DTITLE=Little Leopold - Bring It On
DYEAR=1900
DGENRE=Oldies
TTITLE0=Jitterbop
TTITLE1=Cruel and Unusual Love
TTITLE2=May I
TTITLE3=Bring It On
TTITLE4=Nothing But Love
TTITLE5=Mama Don't Like You
TTITLE6=Short Fat Fanny
TTITLE7=I'll Go Crazy
TTITLE8=Horns Of A Dilemma
TTITLE9=Tore Down
EXTD=Little 
EXTT0=
EXTT1=
EXTT2=
EXTT3=
EXTT4=
EXTT5=
EXTT6=
EXTT7=
EXTT8=
EXTT9=
PLAYORDER=
